<svg id="Layer_1" data-name="Layer 1" xmlns="http://www.w3.org/2000/svg" viewBox="0 0 71.43 71.43"><defs><style>.cls-1{fill:#333132;}</style></defs><title>AAN-coin</title><g id="coin1"><path id="dollarsign" class="cls-1" d="M38.48,32.05c-3.25-1.22-4.46-2-4.46-2.74,0-1.24,1.69-1.43,2.69-1.43a12.54,12.54,0,0,1,5.4,1.23l1.31.56,1.68-6.56-.69-.34a15.51,15.51,0,0,0-5.58-1.43V17.57h-6v4.2C28.41,22.9,25.7,26,25.7,30c0,5.18,4.4,7.32,8.23,8.61,3.36,1.13,3.83,2,3.83,2.78,0,1.55-2.38,1.67-3.11,1.67a13.86,13.86,0,0,1-6.55-1.74L27,40.76,25.3,47.55l.61.36a17.38,17.38,0,0,0,6.71,1.88v4.07h6V49.38c4.59-1.08,7.51-4.37,7.51-8.56S43.83,34,38.48,32.05Z"/><path id="coincircle" class="cls-1" d="M0,35.71A35.72,35.72,0,1,0,35.71,0,35.75,35.75,0,0,0,0,35.71Zm7.38,0A28.34,28.34,0,1,1,35.71,64.05,28.36,28.36,0,0,1,7.38,35.71Z"/></g></svg>